<?xml version="1.0" standalone="no"?>
<!DOCTYPE svg PUBLIC "-//W3C//DTD SVG 20010904//EN"
 "http://www.w3.org/TR/2001/REC-SVG-20010904/DTD/svg10.dtd">
<svg version="1.0" xmlns="http://www.w3.org/2000/svg"
 width="917.000000pt" height="417.000000pt" viewBox="0 0 917.000000 417.000000"
 preserveAspectRatio="xMidYMid meet">

<g transform="translate(0.000000,417.000000) scale(0.100000,-0.100000)"
fill="#000000" stroke="none">
<path d="M4207 3302 c-18 -11 -135 -184 -332 -494 -168 -262 -305 -479 -305
-482 0 -4 50 -5 111 -4 l111 3 240 380 c131 209 242 383 246 387 8 8 262 -393
262 -412 0 -6 -89 -10 -246 -10 -135 0 -244 -4 -242 -8 2 -4 25 -43 52 -85
l49 -77 258 0 258 0 53 -90 53 -90 113 0 114 0 -23 38 c-13 20 -150 235 -305
477 -194 303 -292 447 -314 463 -40 27 -112 29 -153 4z"/>
<path d="M1089 3296 c-164 -46 -294 -178 -344 -350 -23 -77 -17 -218 13 -298
52 -146 173 -258 327 -305 53 -16 100 -18 420 -18 321 0 367 2 428 19 254 70
409 342 342 601 -44 167 -182 307 -349 351 -70 19 -769 18 -837 0z m822 -184
c68 -34 121 -83 154 -143 23 -44 30 -69 33 -135 4 -72 1 -88 -23 -142 -35 -78
-102 -142 -178 -171 -55 -20 -75 -21 -387 -21 -312 0 -332 1 -386 21 -75 28
-140 89 -175 164 -24 50 -29 73 -29 136 0 65 5 85 31 137 43 86 122 150 214
173 17 4 181 7 365 6 328 -2 336 -2 381 -25z"/>
<path d="M2392 2818 l3 -493 92 -3 93 -3 2 408 3 408 325 3 c321 2 326 2 370
-20 59 -31 82 -65 88 -130 3 -44 0 -59 -20 -87 -52 -77 -45 -75 -375 -81
l-295 -5 283 -247 284 -247 138 -1 c75 0 137 1 137 3 0 2 -83 73 -184 158
l-185 154 72 7 c94 10 131 23 194 65 127 85 178 264 115 405 -27 62 -95 134
-157 166 l-50 27 -468 3 -467 3 2 -493z"/>
<path d="M5248 3291 c-194 -62 -327 -230 -344 -434 -22 -256 166 -490 421
-527 39 -5 202 -10 363 -10 l292 0 55 84 c30 46 55 87 55 90 0 3 -172 6 -382
8 -437 3 -433 3 -523 93 -69 68 -90 122 -90 225 0 73 4 92 27 135 34 65 100
128 163 157 48 22 63 23 368 28 l319 5 54 83 54 82 -388 -1 c-346 0 -393 -2
-444 -18z"/>
<path d="M6180 2850 l0 -460 29 -32 29 -33 454 -3 453 -2 57 90 58 90 -445 0
-445 0 0 405 0 405 -95 0 -95 0 0 -460z"/>
<path d="M7590 3300 c-147 -35 -287 -160 -342 -305 -19 -51 -23 -79 -23 -180
1 -102 4 -129 24 -178 51 -129 166 -238 302 -287 61 -22 80 -24 404 -28 l340
-4 57 89 57 88 -387 5 c-382 5 -388 5 -432 29 -77 40 -170 144 -170 191 0 7
131 10 404 10 l404 0 56 88 56 87 -461 3 -460 2 6 23 c21 66 96 145 174 181
43 20 64 21 367 24 l320 3 32 52 c17 29 41 67 53 85 l21 32 -384 -1 c-210 -1
-399 -5 -418 -9z"/>
<path d="M3645 1737 c-86 -29 -136 -68 -170 -136 -13 -25 -16 -52 -13 -106 6
-121 59 -174 258 -255 155 -63 198 -87 220 -123 43 -70 15 -158 -62 -199 -38
-20 -57 -23 -158 -23 -97 1 -127 5 -188 26 l-73 26 3 -55 3 -55 54 -19 c194
-65 425 -34 511 70 39 47 53 100 48 183 -6 112 -63 173 -226 239 -235 96 -272
123 -272 202 0 43 5 55 33 83 62 62 206 70 350 20 l68 -23 -3 56 -3 56 -55 19
c-70 25 -265 33 -325 14z"/>
<path d="M860 1270 l0 -470 100 0 100 0 2 303 3 302 200 -302 200 -303 93 0
92 0 0 470 0 470 -95 0 -95 0 0 -300 c0 -165 -3 -300 -7 -300 -5 0 -97 135
-206 300 l-197 300 -95 0 -95 0 0 -470z"/>
<path d="M1850 1270 l0 -470 310 0 310 0 0 85 0 85 -210 0 -210 0 0 110 0 110
185 0 185 0 0 85 0 85 -185 0 -186 0 3 103 3 102 203 3 202 2 0 85 0 85 -305
0 -305 0 0 -470z"/>
<path d="M2580 1655 l0 -85 140 0 140 0 0 -385 0 -385 100 0 100 0 2 383 3
382 138 3 137 3 0 84 0 85 -380 0 -380 0 0 -85z"/>
<path d="M4242 1398 c4 -361 7 -387 56 -468 80 -131 261 -181 453 -124 38 12
66 30 104 68 97 96 115 191 115 604 l0 262 -60 0 -60 0 0 -258 c0 -267 -10
-399 -36 -461 -35 -85 -111 -131 -214 -131 -108 0 -167 38 -212 135 -22 48
-23 60 -26 383 l-3 332 -60 0 -60 0 3 -342z"/>
<path d="M5180 1270 l0 -470 60 0 60 0 0 470 0 470 -60 0 -60 0 0 -470z"/>
<path d="M5460 1685 l0 -55 145 0 145 0 0 -415 0 -415 60 0 60 0 0 415 0 415
150 0 150 0 0 55 0 55 -355 0 -355 0 0 -55z"/>
<path d="M6330 1270 l0 -470 295 0 295 0 0 50 0 50 -235 0 -235 0 0 160 0 160
210 0 210 0 0 55 0 55 -210 0 -210 0 0 150 0 150 230 0 230 0 0 55 0 55 -290
0 -290 0 0 -470z"/>
</g>
</svg>
